<svg version="1.1" xmlns="http://www.w3.org/2000/svg" xmlns:xlink="http://www.w3.org/1999/xlink" viewBox="0 0 1024 1024">
<defs>
    <linearGradient id="logo-gradient" x1="0%" y1="0%" x2="100%" y2="100%">
        <stop offset="0%" style="stop-color:#2f81f7;stop-opacity:1" />
        <stop offset="100%" style="stop-color:#8b5cf6;stop-opacity:1" />
    </linearGradient>
</defs>
<path fill="url(#logo-gradient)" opacity="1.000000" stroke="none"
	d="
M385.985596,223.013397
	C410.453979,224.353027 434.437500,222.604599 458.398499,223.179047
	C492.038574,223.985565 525.681702,223.682220 559.308655,223.413986
	C585.778687,223.202881 612.238586,223.562759 638.693848,223.768005
	C687.807373,224.149017 726.373291,245.425568 754.825073,285.150085
	C770.452454,306.969055 779.884705,331.484436 782.098877,358.150909
	C786.100647,406.346527 771.875854,447.792877 734.068298,479.692169
	C733.320435,480.323151 732.638367,481.032074 731.704468,481.913300
	C734.655029,485.604645 738.691895,487.717316 742.109985,490.515747
	C767.917114,511.644562 783.875916,538.990356 790.106689,571.319275
	C801.893066,632.473755 783.350769,684.496582 738.719299,727.048035
	C712.348145,752.190369 680.445801,766.896545 644.087769,771.572937
	C640.097534,772.086182 636.151184,772.360962 632.162415,772.361511
	C539.347046,772.373291 446.531647,772.375244 353.716248,772.372070
	C344.992249,772.371765 344.656586,772.022949 344.656494,763.385986
	C344.655029,622.413147 344.655029,481.440308 344.654480,340.467468
	C344.654449,338.301208 344.677734,336.134552 344.644104,333.968811
	C344.545197,327.595734 342.332672,325.428925 335.805084,325.332458
	C332.806183,325.288116 329.806366,325.301544 326.806946,325.300873
	C290.314056,325.292847 253.821182,325.291870 217.328293,325.277344
	C208.249756,325.273743 205.662231,322.737701 205.657791,313.809906
	C205.644348,286.815094 205.641907,259.820312 205.659897,232.825500
	C205.664917,225.286575 207.271118,223.719711 214.673218,223.641632
	C236.150604,223.415085 257.617889,222.827652 279.108765,223.522217
	C292.076935,223.941345 305.080750,223.131332 318.069183,223.093719
	C326.556946,223.069153 335.046570,223.622864 343.534119,223.590576
	C357.519501,223.537323 371.503845,223.219299 385.985596,223.013397
M652.194397,665.663940
	C691.156189,646.907349 706.231140,603.533203 685.966309,566.564209
	C674.008423,544.749573 655.317383,531.669739 629.973938,531.424072
	C574.151184,530.882874 518.320007,531.197632 462.492310,531.198547
	C456.495941,531.198669 453.356812,534.765137 453.380768,541.772095
	C453.521484,582.926453 453.151489,624.075500 452.361023,665.222107
	C452.232422,671.916748 452.364929,671.957214 458.948944,671.958740
	C513.111023,671.971558 567.273254,671.900330 621.434998,672.031006
	C631.945801,672.056396 641.915222,670.150085 652.194397,665.663940
M630.376404,325.320862
	C575.067017,325.308838 519.757568,325.291229 464.448151,325.290497
	C455.631165,325.290375 453.372406,327.613068 453.354279,336.613281
	C453.298279,364.434601 453.264343,392.255890 453.206085,420.077209
	C453.186462,429.452576 455.295715,431.643341 464.527954,431.643494
	C517.838440,431.644409 571.149475,431.497284 624.459290,431.689026
	C655.886902,431.802063 686.828308,405.212280 679.820312,367.368347
	C675.564697,344.387482 654.580139,325.592010 630.376404,325.320862
z"/>
</svg>
